<svg xmlns="http://www.w3.org/2000/svg" width="34" height="34" viewBox="0 0 34 34">
    <path d="M22.3914 10.4074C22.7278 10.0802 23.2727 10.0801 23.6091 10.4074C23.9455 10.7347 23.9453 11.2646 23.6091 11.592L18.0505 16.9992L23.6091 22.4074C23.9455 22.7348 23.9456 23.2656 23.6091 23.593C23.2728 23.92 22.7278 23.9199 22.3914 23.593L16.8328 18.1848L11.6091 23.2687C11.2727 23.596 10.7278 23.596 10.3914 23.2687C10.0549 22.9414 10.0549 22.4106 10.3914 22.0832L15.615 16.9992L10.3914 11.9162C10.0549 11.5888 10.0549 11.059 10.3914 10.7316C10.7278 10.4043 11.2727 10.4043 11.6091 10.7316L16.8328 15.8146L22.3914 10.4074Z"
    />
</svg>