<svg xmlns="http://www.w3.org/2000/svg" width="22" height="22" viewBox="0 0 22 22">
    <path
        d="M8.56944 14.0537L8.10578 18.9814C8.10578 18.9814 7.91169 20.4914 9.42126 18.9814C10.9308 17.4715 12.3758 16.3072 12.3758 16.3072" />
    <path
        d="M5.40897 12.578L0.440519 10.9592C0.440519 10.9592 -0.153266 10.7183 0.0379329 10.172C0.0772924 10.0593 0.15669 9.96347 0.394204 9.79873C1.49508 9.03139 20.7705 2.10328 20.7705 2.10328C20.7705 2.10328 21.3148 1.91988 21.6358 2.04186C21.7152 2.06645 21.7866 2.11168 21.8428 2.17293C21.899 2.23419 21.9379 2.30927 21.9556 2.3905C21.9902 2.53397 22.0047 2.68158 21.9986 2.82905C21.9971 2.95663 21.9817 3.07488 21.97 3.26031C21.8526 5.15449 18.3394 19.2913 18.3394 19.2913C18.3394 19.2913 18.1292 20.1185 17.3761 20.1469C17.191 20.1529 17.0067 20.1215 16.834 20.0547C16.6613 19.9879 16.5038 19.887 16.3709 19.758C14.8931 18.4868 9.78517 15.0541 8.65647 14.2991C8.63101 14.2818 8.60957 14.2592 8.59359 14.2328C8.57761 14.2065 8.56746 14.177 8.56384 14.1464C8.54806 14.0669 8.63458 13.9683 8.63458 13.9683C8.63458 13.9683 17.5288 6.06247 17.7655 5.23253C17.7838 5.16823 17.7146 5.1365 17.6216 5.16467C17.0309 5.38199 6.79029 11.849 5.66006 12.5627C5.5787 12.5873 5.49271 12.5926 5.40897 12.578Z" />
</svg>