<svg width="30" height="30" viewBox="0 0 30 30" xmlns="http://www.w3.org/2000/svg">
    <circle cx="14.5" cy="14.5" r="13.5" fill="currentColor" />
    <path
        d="M14.9288 0C23.0068 0.000104111 29.5557 6.54888 29.5557 14.627C29.5556 22.7049 23.0068 29.2538 14.9288 29.2539C6.8507 29.2539 0.301923 22.705 0.301819 14.627C0.301819 6.54882 6.85064 0 14.9288 0ZM10.6426 7.95508C10.1344 7.88365 9.61863 7.88363 9.11041 7.95508C8.63631 8.28406 8.2318 8.70424 7.92096 9.19043C7.61026 9.67651 7.39947 10.2198 7.29987 10.7881C7.06832 12.5954 8.17744 14.4489 8.1817 14.4561C9.31213 16.1379 10.6541 17.6675 12.1749 19.0068C13.5052 20.0595 15.0159 20.8619 16.6329 21.375C17.576 21.7515 18.6078 21.848 19.6046 21.6533C20.488 21.4108 21.2694 20.8892 21.8331 20.167C21.9651 19.8385 22.0594 19.4956 22.1124 19.1455C22.1654 18.8384 22.1655 18.5239 22.1124 18.2168C22.0638 17.8911 18.7227 16.3605 18.3975 16.4531C18.0725 16.546 17.7934 17.1494 17.4219 17.6602C17.0506 18.1707 16.9114 18.4033 16.5401 18.4033C16.1686 18.4033 14.5431 17.7524 13.0108 16.3594C12.1359 15.6006 11.4521 14.6466 11.0147 13.5742C11.0147 13.5742 11.2928 13.2489 11.6641 12.7383C11.9532 12.4216 12.1603 12.0382 12.2676 11.623C12.2659 11.3869 10.9675 8.09429 10.6426 7.95508Z" />
    <path
        d="M2.62308 22.2884L0.487122 29.8571L8.33451 27.6747L8.75237 25.2602L3.64461 26.8854L4.99121 22.0098L2.62308 22.2884Z" />
    <path d="M3.55145 26.9318C3.55145 26.8854 5.17665 21.499 5.17665 21.499L9.07713 25.1673L3.55145 26.9318Z" />
</svg>