<svg width="324" height="198" viewBox="0 0 324 198" fill="none" xmlns="http://www.w3.org/2000/svg">
<g clip-path="url(#clip0_378_10741)">
<path d="M75.8565 186.495H74.7389V185.014H81.8763C82.651 185.014 82.9812 185.343 82.9812 186.115V187.647H81.4064V186.875C81.4064 186.622 81.2667 186.495 81.0254 186.495H77.5837V190.015H79.8443C81.9017 190.015 83.9464 190.99 83.9464 193.547C83.9464 196.105 82.0922 197.181 79.8443 197.181H76.9741C76.1994 197.181 75.8565 196.852 75.8565 196.08V186.495ZM77.9647 195.725H79.9586C81.3302 195.725 82.1684 194.877 82.1684 193.573C82.1684 192.269 81.3175 191.446 79.9586 191.446H77.5964V195.345C77.5964 195.599 77.7361 195.725 77.9774 195.725H77.9647Z" fill="#A2A594"/>
<path d="M89.6486 195.7H89.8899C90.1947 195.7 90.3598 195.637 90.4614 195.32L94.2841 185.014H96.1002L99.9229 195.32C100.024 195.624 100.177 195.7 100.494 195.7H100.736V197.181H99.7832C98.9196 197.181 98.6402 196.979 98.3481 196.181L97.4337 193.687H92.9506L92.0362 196.181C91.7441 196.979 91.4647 197.181 90.6011 197.181H89.6486V195.7ZM97.0146 192.231L95.6811 188.521C95.4779 187.888 95.1985 186.812 95.1985 186.812H95.1604C95.1604 186.812 94.9064 187.875 94.6905 188.521L93.357 192.231H97.0019H97.0146Z" fill="#A2A594"/>
<path d="M107.733 186.875C107.733 186.622 107.594 186.495 107.352 186.495H106.603V185.014H108.356C109.13 185.014 109.46 185.343 109.46 186.115V190.369H115.671V186.115C115.671 185.343 116.001 185.014 116.788 185.014H118.516V186.495H117.766C117.525 186.495 117.385 186.622 117.385 186.875V197.181H115.658V191.838H109.448V197.181H107.721V186.875H107.733Z" fill="#A2A594"/>
<path d="M126.008 186.875C126.008 186.622 125.869 186.495 125.627 186.495H124.878V185.014H126.631C127.405 185.014 127.736 185.343 127.736 186.115V190.369H133.946V186.115C133.946 185.343 134.276 185.014 135.063 185.014H136.791V186.495H136.041C135.8 186.495 135.66 186.622 135.66 186.875V197.181H133.933V191.838H127.723V197.181H125.996V186.875H126.008Z" fill="#A2A594"/>
<path d="M144.271 186.875C144.271 186.622 144.131 186.495 143.89 186.495H143.141V185.014H144.893C145.668 185.014 145.998 185.343 145.998 186.115V189.597H148.335C150.481 189.597 152.221 190.787 152.221 193.307C152.221 195.827 150.405 197.181 148.056 197.181H145.389C144.614 197.181 144.271 196.852 144.271 196.08V186.875ZM146.379 195.7H148.157C149.554 195.7 150.443 194.839 150.443 193.358C150.443 191.876 149.567 191.078 148.157 191.078H145.998V195.32C145.998 195.561 146.138 195.7 146.379 195.7ZM153.923 185.014H155.65V195.32C155.65 195.561 155.79 195.7 156.031 195.7H156.78V197.181H155.028C154.253 197.181 153.923 196.852 153.923 196.08V185.014Z" fill="#A2A594"/>
<path d="M164.261 186.876C164.261 186.622 164.121 186.496 163.88 186.496H163.13V185.014H164.883C165.658 185.014 165.988 185.343 165.988 186.116V192.788C165.988 193.472 165.886 194.536 165.886 194.536H165.924C165.924 194.536 166.585 193.434 167.016 192.776L172.338 185.014H174.027V195.321C174.027 195.561 174.167 195.701 174.408 195.701H175.144V197.182H173.417C172.617 197.182 172.287 196.853 172.287 196.08V189.395C172.287 188.724 172.389 187.623 172.389 187.623H172.35C172.35 187.623 171.741 188.749 171.309 189.395L165.95 197.182H164.235V186.876H164.261ZM166.534 182.229V181.963H167.88V182.203C167.88 182.963 168.49 183.343 169.087 183.343C169.683 183.343 170.318 182.963 170.318 182.191V181.963H171.652V182.229C171.652 183.647 170.445 184.432 169.087 184.432C167.728 184.432 166.521 183.634 166.521 182.229H166.534Z" fill="#A2A594"/>
<path d="M192.48 186.876C192.48 186.623 192.34 186.496 192.099 186.496H191.349V185.015H193.102C193.877 185.015 194.207 185.344 194.207 186.116V190.13H195.363C195.807 190.13 196.163 190.054 196.366 189.712L199.084 185.002H201.014L198.055 190.054C197.712 190.662 197.369 190.852 197.369 190.852V190.889C197.369 190.889 197.712 190.978 198.055 191.649L199.884 195.308C200.062 195.676 200.328 195.701 200.747 195.701H201.078V197.182H200.125C199.173 197.182 198.804 197.056 198.436 196.271L196.328 192.054C196.125 191.662 195.744 191.611 195.236 191.611H194.194V197.195H192.467V186.888L192.48 186.876Z" fill="#A2A594"/>
<path d="M206.716 195.7C208.774 195.421 209.498 192.788 209.498 187.837V186.495H208.355V185.014H215.53C216.305 185.014 216.635 185.343 216.635 186.115V195.32C216.635 195.561 216.775 195.7 217.016 195.7H217.765V197.181H216.013C215.238 197.181 214.908 196.852 214.908 196.08V186.875C214.908 186.622 214.768 186.495 214.527 186.495H211.136V187.85C211.136 193.674 210.082 197.067 206.704 197.257V195.687L206.716 195.7Z" fill="#A2A594"/>
<path d="M225.754 195.283C226.096 195.574 226.528 195.815 227.036 195.815C227.786 195.815 228.103 195.334 228.421 194.447L224.636 186.863C224.496 186.585 224.357 186.483 224.064 186.483H223.722V185.002H224.776C225.588 185.002 225.83 185.243 226.173 186.002L228.649 191.257C229.017 192.016 229.284 192.751 229.284 192.751H229.322C229.322 192.751 229.525 192.092 229.843 191.257L231.761 186.002C232.053 185.192 232.332 185.002 233.196 185.002H234.135V186.483H233.856C233.551 186.483 233.386 186.547 233.272 186.851L229.957 195.232C229.525 196.334 228.763 197.385 227.265 197.385C226.16 197.385 225.22 196.802 224.979 196.562L225.779 195.283H225.754Z" fill="#A2A594"/>
<path d="M241.184 186.495H240.066V185.014H247.204C247.978 185.014 248.309 185.343 248.309 186.115V187.647H246.734V186.875C246.734 186.622 246.594 186.495 246.353 186.495H242.911V190.015H245.172C247.229 190.015 249.274 190.99 249.274 193.547C249.274 196.105 247.42 197.181 245.172 197.181H242.301C241.527 197.181 241.184 196.852 241.184 196.08V186.495ZM243.292 195.725H245.286C246.658 195.725 247.496 194.877 247.496 193.573C247.496 192.269 246.645 191.446 245.286 191.446H242.924V195.345C242.924 195.599 243.063 195.725 243.305 195.725H243.292Z" fill="#A2A594"/>
<path d="M20.0024 154.132H21.6406C21.7422 154.563 21.8438 155.069 21.9454 155.664C22.047 156.259 22.1232 156.892 22.1867 157.576C22.2502 158.26 22.301 158.918 22.3264 159.589C22.3518 160.26 22.3645 160.855 22.3645 161.374C21.4247 161.957 20.2691 162.375 18.8721 162.603C17.4751 162.843 16.04 162.957 14.5795 162.957C12.3697 162.957 10.3631 162.679 8.57244 162.147C6.78175 161.602 5.24506 160.741 3.97507 159.564C2.70508 158.386 1.72719 156.88 1.04139 155.069C0.342897 153.246 0 151.068 0 148.523C0 145.978 0.380997 143.826 1.14299 142.015C1.90499 140.192 2.92098 138.698 4.20367 137.533C5.48636 136.368 6.95955 135.507 8.66134 134.963C10.3504 134.418 12.1284 134.152 13.9953 134.152C15.7479 134.152 17.3481 134.279 18.7705 134.532C20.1929 134.785 21.3612 135.127 22.2629 135.545C22.2629 135.976 22.2375 136.507 22.1994 137.178C22.1613 137.849 22.0978 138.533 21.9962 139.268C21.9073 140.002 21.793 140.711 21.6787 141.42C21.5644 142.129 21.4501 142.711 21.3358 143.193H19.6595L17.4624 137.178C17.2211 137.052 16.8401 136.938 16.3067 136.862C15.7733 136.786 15.2272 136.748 14.6684 136.748C13.5762 136.748 12.5475 136.963 11.595 137.406C10.6298 137.849 9.77893 138.546 9.04233 139.495C8.29304 140.458 7.70884 141.686 7.28975 143.18C6.85795 144.674 6.65475 146.485 6.65475 148.574C6.65475 152.372 7.41675 155.284 8.92803 157.335C10.4393 159.374 12.5094 160.399 15.1129 160.399C15.8622 160.399 16.4972 160.336 17.0052 160.222C17.5259 160.108 17.8815 159.944 18.0593 159.728L20.0151 154.157L20.0024 154.132Z" fill="#A2A594"/>
<path d="M74.7135 162.49H60.9849V160.983C61.5183 160.768 62.1279 160.553 62.801 160.325C63.4741 160.097 64.1599 159.932 64.8584 159.831V137.218H60.223L57.6703 144.03H56.032C55.9304 143.498 55.8161 142.827 55.7145 142.004C55.6129 141.181 55.5113 140.332 55.4351 139.459C55.3589 138.585 55.2954 137.712 55.2319 136.851C55.1811 135.99 55.1557 135.255 55.1557 134.647H80.5555C80.5555 135.281 80.5301 136.028 80.4793 136.876C80.4285 137.724 80.365 138.585 80.2761 139.459C80.1999 140.332 80.0983 141.181 79.9967 141.991C79.8951 142.801 79.7808 143.485 79.6792 144.042H78.0409L75.4882 137.23H70.8528V159.844C71.5386 159.983 72.2371 160.135 72.9102 160.325C73.5833 160.515 74.1929 160.743 74.7262 160.996V162.503L74.7135 162.49Z" fill="#A2A594"/>
<path d="M113.042 148.549C113.042 146.485 113.334 144.561 113.918 142.801C114.502 141.041 115.366 139.509 116.509 138.218C117.652 136.926 119.062 135.926 120.738 135.217C122.414 134.495 124.345 134.141 126.529 134.141C128.714 134.141 130.644 134.495 132.32 135.217C133.997 135.939 135.406 136.939 136.537 138.218C137.667 139.509 138.531 141.028 139.115 142.801C139.699 144.561 139.991 146.485 139.991 148.549C139.991 150.613 139.699 152.538 139.115 154.298C138.531 156.058 137.667 157.59 136.537 158.881C135.406 160.172 133.997 161.173 132.32 161.882C130.644 162.603 128.714 162.958 126.529 162.958C124.345 162.958 122.414 162.603 120.738 161.882C119.062 161.16 117.652 160.16 116.509 158.881C115.366 157.602 114.502 156.07 113.918 154.298C113.334 152.538 113.042 150.613 113.042 148.549ZM119.836 148.549C119.836 150.246 119.976 151.816 120.23 153.272C120.497 154.715 120.916 155.969 121.487 157.02C122.059 158.071 122.795 158.894 123.684 159.489C124.573 160.084 125.653 160.388 126.897 160.388C128.04 160.388 129.018 160.084 129.818 159.489C130.619 158.894 131.266 158.071 131.774 157.02C132.282 155.969 132.651 154.728 132.866 153.272C133.095 151.829 133.209 150.259 133.209 148.549C133.209 146.84 133.082 145.283 132.828 143.827C132.574 142.383 132.181 141.13 131.635 140.079C131.088 139.028 130.365 138.205 129.476 137.61C128.587 137.015 127.494 136.711 126.224 136.711C124.954 136.711 123.976 137.015 123.151 137.61C122.325 138.205 121.665 139.028 121.17 140.079C120.675 141.13 120.332 142.371 120.128 143.827C119.925 145.27 119.824 146.853 119.824 148.549H119.836Z" fill="#A2A594"/>
<path d="M180.174 137.685C179.348 137.559 178.573 137.343 177.837 137.052C177.1 136.761 176.478 136.457 175.944 136.141V134.634H198.982V136.141C198.588 136.381 198.093 136.609 197.522 136.812C196.95 137.027 196.341 137.179 195.706 137.293V159.83C196.315 159.931 196.899 160.096 197.445 160.311C197.992 160.526 198.5 160.754 198.982 160.982V162.489H186.689V160.982C187.146 160.742 187.628 160.526 188.149 160.324C188.67 160.121 189.191 159.957 189.724 159.83V137.217H183.209C183.133 141.256 182.942 144.611 182.65 147.308C182.358 150.005 182.002 152.22 181.571 153.98C181.139 155.728 180.669 157.12 180.148 158.146C179.627 159.172 179.094 160.045 178.535 160.792C178.027 161.476 177.392 162.02 176.618 162.4C175.843 162.78 175.106 162.983 174.382 162.983C174.04 162.843 173.709 162.578 173.379 162.172C173.062 161.755 172.77 161.286 172.503 160.754C172.236 160.223 172.02 159.665 171.842 159.083C171.665 158.501 171.576 157.956 171.538 157.45L172.617 155.943L177.367 157.095C177.71 156.348 178.053 155.462 178.383 154.411C178.713 153.36 179.018 152.069 179.285 150.524C179.551 148.992 179.767 147.169 179.92 145.067C180.085 142.978 180.161 140.509 180.161 137.698L180.174 137.685Z" fill="#A2A594"/>
<path d="M234.986 137.293C233.729 137.077 232.637 136.698 231.71 136.141V134.634H253.147C253.147 135.242 253.122 135.925 253.071 136.66C253.02 137.407 252.957 138.141 252.868 138.888C252.792 139.635 252.69 140.344 252.588 141.04C252.487 141.737 252.373 142.357 252.271 142.914H250.633L248.156 137.217H240.968V146.295C241.209 146.27 241.501 146.232 241.844 146.194C242.187 146.156 242.543 146.118 242.898 146.092C243.254 146.067 243.622 146.042 243.978 146.029C244.333 146.016 244.651 146.004 244.918 146.004C246.277 146.004 247.572 146.156 248.791 146.447C250.01 146.738 251.09 147.207 252.004 147.865C252.919 148.523 253.655 149.359 254.201 150.397C254.747 151.435 255.014 152.676 255.014 154.145C255.014 155.614 254.722 156.791 254.151 157.842C253.579 158.906 252.792 159.792 251.801 160.488C250.798 161.197 249.617 161.717 248.245 162.084C246.873 162.438 245.388 162.616 243.787 162.616C243.648 162.616 243.317 162.616 242.784 162.603C242.251 162.59 241.654 162.578 240.993 162.565L239 162.527C238.339 162.514 237.806 162.502 237.399 162.502H231.684V160.995C232.192 160.704 232.713 160.463 233.259 160.26C233.805 160.058 234.377 159.919 234.961 159.843V137.305L234.986 137.293ZM243.216 148.599C242.784 148.599 242.378 148.625 241.971 148.663C241.578 148.701 241.235 148.764 240.968 148.84V159.868C241.07 159.893 241.247 159.919 241.463 159.944C241.692 159.969 241.92 159.995 242.162 160.007C242.403 160.02 242.632 160.033 242.86 160.033H243.394C244.968 160.033 246.2 159.526 247.089 158.526C247.978 157.526 248.423 156.095 248.423 154.272C248.423 152.448 248.004 151.144 247.191 150.131C246.365 149.118 245.032 148.625 243.203 148.625L243.216 148.599Z" fill="#A2A594"/>
<path d="M288.453 162.489V160.982C288.936 160.716 289.456 160.488 290.028 160.286C290.599 160.083 291.171 159.931 291.73 159.83V137.293C291.196 137.191 290.65 137.052 290.091 136.875C289.532 136.698 288.986 136.457 288.453 136.14V134.634H301.229V136.14C300.721 136.406 300.175 136.634 299.578 136.837C298.981 137.039 298.359 137.191 297.724 137.293V145.814C298.206 145.738 298.778 145.662 299.438 145.611C300.099 145.561 300.696 145.535 301.229 145.535C302.613 145.535 303.921 145.662 305.166 145.928C306.398 146.194 307.477 146.649 308.405 147.283C309.319 147.916 310.056 148.764 310.602 149.827C311.148 150.891 311.414 152.22 311.414 153.803C311.414 155.285 311.122 156.589 310.538 157.69C309.954 158.792 309.154 159.703 308.138 160.438C307.122 161.172 305.941 161.717 304.582 162.071C303.223 162.426 301.775 162.603 300.226 162.603C300.086 162.603 299.819 162.603 299.413 162.59C298.994 162.577 298.524 162.565 297.978 162.552C297.432 162.54 296.886 162.527 296.327 162.514C295.768 162.502 295.286 162.489 294.892 162.489H288.466H288.453ZM299.794 148.118C298.918 148.118 298.219 148.194 297.711 148.359V159.868C297.927 159.919 298.27 159.957 298.753 159.982C299.235 160.007 299.591 160.02 299.832 160.02C301.343 160.02 302.563 159.526 303.464 158.551C304.366 157.576 304.823 155.994 304.823 153.816C304.823 150.017 303.147 148.118 299.794 148.118ZM324 162.489H311.897V160.982C312.329 160.742 312.786 160.526 313.281 160.324C313.777 160.121 314.285 159.957 314.818 159.83V137.293C314.31 137.191 313.789 137.039 313.243 136.85C312.697 136.66 312.189 136.419 311.706 136.128V134.621H324V136.128C323.098 136.71 322.032 137.09 320.8 137.28V159.817C321.46 159.919 322.07 160.096 322.59 160.311C323.124 160.539 323.594 160.754 323.987 160.97V162.476L324 162.489Z" fill="#A2A594"/>
<path d="M162 9.05864C137.07 9.05864 116.801 29.2789 116.801 54.1206C116.801 78.9623 137.07 99.1826 162 99.1826C186.93 99.1826 207.199 78.9623 207.199 54.1206C207.199 29.2789 186.917 9.05864 162 9.05864ZM162 102.069C135.483 102.069 113.893 80.5576 113.893 54.1079C113.893 27.6583 135.47 6.15918 162 6.15918C188.53 6.15918 210.107 27.6709 210.107 54.1206C210.107 80.5703 188.53 102.082 162 102.082V102.069Z" fill="#A2A594"/>
<path d="M162 3.19634C133.844 3.19634 110.934 26.0375 110.934 54.1079C110.934 82.1782 133.844 105.032 162 105.032C190.156 105.032 213.079 82.1909 213.079 54.1079C213.079 26.0249 190.168 3.19634 162 3.19634ZM162 107.944C132.244 107.944 108.025 83.7989 108.025 54.1205C108.025 24.4422 132.231 0.296875 162 0.296875C191.769 0.296875 215.987 24.4422 215.987 54.1079C215.987 83.7736 191.769 107.932 162 107.932V107.944Z" fill="#A2A594"/>
<path d="M187.387 58.0074C184.987 57.501 183.374 58.21 182.46 58.8937C180.097 60.641 179.691 63.2619 179.742 65.9588C179.78 68.0099 179.539 71.9983 177.468 74.8724C174.954 78.3923 172.782 81.4184 163.765 82.1021C163.372 82.1274 162.978 82.1527 162.584 82.1654C153.44 82.1147 149.11 76.2905 147.116 71.5425C146.29 69.5546 145.858 67.4275 145.858 65.2118V60.9828C149.338 59.6281 151.65 57.0958 151.65 54.1204C151.65 51.1449 149.351 48.6253 145.858 47.2705V43.0416C145.858 40.8132 146.278 38.6861 147.116 36.7109C149.122 31.9502 153.466 25.9994 162.673 25.974C163.041 25.9867 163.41 25.9994 163.778 26.0247C172.782 26.7084 174.967 29.7345 177.481 33.2543C179.539 36.1285 179.78 40.1295 179.754 42.1806C179.704 44.8775 180.11 47.4984 182.472 49.2457C183.387 49.9294 185.012 50.6385 187.4 50.1193C190.473 49.2457 191.794 47.0553 192.073 44.9915C192.327 43.2442 191.857 41.6615 190.905 39.8509C182.409 23.8216 164.73 22.9606 163.016 22.9606H162.902C153.847 22.5808 145.833 26.2146 139.534 33.2797C135.838 37.4326 133.501 42.3579 132.447 47.9796C129.844 49.423 128.206 51.6134 128.206 54.1204C128.206 56.6273 129.844 58.8304 132.46 60.2738C133.514 65.8322 135.864 70.7321 139.521 74.8471C145.82 81.9122 153.834 85.546 162.889 85.1788H163.003C164.718 85.1788 182.396 84.3178 190.892 68.2885C191.845 66.4779 192.302 64.8952 192.061 63.1353C191.769 61.0715 190.46 58.8937 187.387 58.0074ZM188.886 42.3959C189.584 44.0672 189.419 46.5995 186.765 47.2832C185.698 47.5744 184.834 47.3971 184.187 46.916C183.882 46.6881 183.628 46.3969 183.425 46.0677C182.383 44.4344 182.688 42.953 182.637 41.1677C182.561 38.5975 182.04 34.6598 179.831 31.5577C179.551 31.1779 179.285 30.798 178.992 30.4055C182.942 32.9125 186.612 36.4197 188.886 42.3832V42.3959ZM139.915 49.0811C144.69 49.0811 148.729 51.3855 148.729 54.1077C148.729 56.8299 144.69 59.1469 139.915 59.1469C135.14 59.1469 131.101 56.8426 131.101 54.1077C131.101 51.3728 135.14 49.0811 139.915 49.0811ZM141.693 35.2042C143.572 33.1024 145.617 31.3425 147.801 29.9497C146.201 31.9122 145.122 33.9507 144.436 35.5714C143.445 37.9137 142.937 40.4207 142.937 43.029V46.4602C141.972 46.2956 140.969 46.1943 139.915 46.1943C138.404 46.1943 136.981 46.3842 135.66 46.7261C136.753 42.3706 138.746 38.4962 141.693 35.2042ZM141.693 72.9226C138.785 69.6559 136.791 65.8322 135.698 61.5273C137.007 61.8565 138.429 62.0464 139.928 62.0464C140.982 62.0464 141.985 61.9451 142.95 61.7805V65.2118C142.95 67.82 143.458 70.327 144.449 72.6693C145.122 74.2647 146.176 76.2398 147.738 78.1264C145.579 76.7336 143.56 74.999 141.706 72.9226H141.693ZM188.886 65.7309C186.612 71.7071 182.942 75.2143 178.992 77.7212C179.285 77.3414 179.551 76.9489 179.831 76.569C182.04 73.4797 182.561 69.5293 182.637 66.9717C182.688 65.1864 182.371 63.6924 183.425 62.0591C183.628 61.7425 183.895 61.4513 184.187 61.2234C184.847 60.7423 185.698 60.565 186.765 60.8436C189.406 61.5399 189.584 64.0722 188.886 65.7309Z" fill="#A2A594"/>
</g>
<defs>
<clipPath id="clip0_378_10741">
<rect width="324" height="197.687" fill="white" transform="translate(0 0.296875)"/>
</clipPath>
</defs>
</svg>
