<svg width="434" height="265" viewBox="0 0 434 265" fill="none" xmlns="http://www.w3.org/2000/svg">
<g clip-path="url(#clip0_373_9564)">
<path d="M101.61 249.572H100.113V247.587H109.674C110.712 247.587 111.154 248.028 111.154 249.063V251.115H109.044V250.081C109.044 249.741 108.857 249.572 108.534 249.572H103.924V254.287H106.952C109.708 254.287 112.447 255.593 112.447 259.018C112.447 262.444 109.963 263.886 106.952 263.886H103.107C102.07 263.886 101.61 263.445 101.61 262.41V249.572ZM104.434 261.936H107.105C108.942 261.936 110.065 260.799 110.065 259.052C110.065 257.305 108.925 256.203 107.105 256.203H103.941V261.427C103.941 261.766 104.128 261.936 104.451 261.936H104.434Z" fill="white"/>
<path d="M120.085 261.902H120.408C120.816 261.902 121.038 261.817 121.174 261.393L126.294 247.587H128.727L133.847 261.393C133.983 261.8 134.188 261.902 134.613 261.902H134.936V263.886H133.66C132.503 263.886 132.129 263.615 131.738 262.546L130.513 259.205H124.508L123.283 262.546C122.892 263.615 122.518 263.886 121.361 263.886H120.085V261.902ZM129.952 257.255L128.165 252.285C127.893 251.437 127.519 249.996 127.519 249.996H127.468C127.468 249.996 127.128 251.42 126.839 252.285L125.052 257.255H129.935H129.952Z" fill="white"/>
<path d="M144.309 250.081C144.309 249.741 144.122 249.572 143.799 249.572H142.795V247.587H145.143C146.181 247.587 146.623 248.028 146.623 249.063V254.761H154.942V249.063C154.942 248.028 155.384 247.587 156.439 247.587H158.752V249.572H157.749C157.425 249.572 157.238 249.741 157.238 250.081V263.886H154.925V256.729H146.606V263.886H144.292V250.081H144.309Z" fill="white"/>
<path d="M168.789 250.081C168.789 249.741 168.602 249.572 168.279 249.572H167.275V247.587H169.623C170.66 247.587 171.103 248.028 171.103 249.063V254.761H179.421V249.063C179.421 248.028 179.864 247.587 180.918 247.587H183.232V249.572H182.228C181.905 249.572 181.718 249.741 181.718 250.081V263.886H179.404V256.729H171.086V263.886H168.772V250.081H168.789Z" fill="white"/>
<path d="M193.252 250.081C193.252 249.741 193.065 249.572 192.741 249.572H191.738V247.587H194.085C195.123 247.587 195.565 248.028 195.565 249.063V253.727H198.696C201.571 253.727 203.901 255.321 203.901 258.696C203.901 262.071 201.468 263.886 198.321 263.886H194.749C193.711 263.886 193.252 263.445 193.252 262.41V250.081ZM196.076 261.902H198.457C200.329 261.902 201.519 260.748 201.519 258.764C201.519 256.78 200.346 255.711 198.457 255.711H195.565V261.393C195.565 261.715 195.753 261.902 196.076 261.902ZM206.181 247.587H208.494V261.393C208.494 261.715 208.681 261.902 209.005 261.902H210.008V263.886H207.661C206.623 263.886 206.181 263.445 206.181 262.41V247.587Z" fill="white"/>
<path d="M220.028 250.081C220.028 249.741 219.841 249.572 219.518 249.572H218.514V247.587H220.862C221.899 247.587 222.342 248.028 222.342 249.063V258.001C222.342 258.917 222.206 260.341 222.206 260.341H222.257C222.257 260.341 223.141 258.866 223.72 257.984L230.847 247.587H233.11V261.393C233.11 261.715 233.297 261.902 233.62 261.902H234.607V263.886H232.293C231.222 263.886 230.779 263.445 230.779 262.41V253.456C230.779 252.557 230.916 251.081 230.916 251.081H230.864C230.864 251.081 230.048 252.591 229.47 253.456L222.291 263.886H219.994V250.081H220.028ZM223.073 243.856V243.5H224.876V243.822C224.876 244.84 225.693 245.349 226.492 245.349C227.292 245.349 228.143 244.84 228.143 243.805V243.5H229.929V243.856C229.929 245.756 228.313 246.807 226.492 246.807C224.672 246.807 223.056 245.739 223.056 243.856H223.073Z" fill="white"/>
<path d="M257.828 250.08C257.828 249.741 257.641 249.572 257.318 249.572H256.314V247.587H258.661C259.699 247.587 260.141 248.028 260.141 249.063V254.439H261.69C262.285 254.439 262.761 254.337 263.033 253.879L266.674 247.57H269.26L265.296 254.337C264.837 255.151 264.377 255.406 264.377 255.406V255.457C264.377 255.457 264.837 255.575 265.296 256.474L267.746 261.376C267.984 261.868 268.341 261.902 268.902 261.902H269.345V263.886H268.069C266.793 263.886 266.3 263.716 265.806 262.665L262.982 257.017C262.71 256.491 262.2 256.423 261.519 256.423H260.124V263.903H257.811V250.097L257.828 250.08Z" fill="white"/>
<path d="M276.898 261.902C279.654 261.529 280.623 258.001 280.623 251.369V249.572H279.092V247.587H288.704C289.742 247.587 290.184 248.028 290.184 249.063V261.393C290.184 261.715 290.371 261.902 290.694 261.902H291.698V263.886H289.35C288.313 263.886 287.87 263.445 287.87 262.41V250.081C287.87 249.741 287.683 249.572 287.36 249.572H282.818V251.386C282.818 259.188 281.406 263.733 276.881 263.988V261.885L276.898 261.902Z" fill="white"/>
<path d="M302.398 261.342C302.858 261.732 303.436 262.054 304.116 262.054C305.12 262.054 305.545 261.41 305.971 260.222L300.901 250.063C300.714 249.69 300.527 249.555 300.136 249.555H299.676V247.57H301.088C302.177 247.57 302.5 247.893 302.96 248.91L306.277 255.949C306.77 256.966 307.127 257.95 307.127 257.95H307.179C307.179 257.95 307.451 257.068 307.876 255.949L310.445 248.91C310.836 247.825 311.21 247.57 312.367 247.57H313.626V249.555H313.252C312.843 249.555 312.622 249.639 312.469 250.046L308.029 261.274C307.451 262.75 306.43 264.157 304.423 264.157C302.943 264.157 301.684 263.377 301.361 263.055L302.432 261.342H302.398Z" fill="white"/>
<path d="M323.067 249.572H321.57V247.587H331.131C332.169 247.587 332.611 248.028 332.611 249.063V251.115H330.501V250.081C330.501 249.741 330.314 249.572 329.991 249.572H325.381V254.287H328.409C331.165 254.287 333.904 255.593 333.904 259.018C333.904 262.444 331.42 263.886 328.409 263.886H324.564C323.527 263.886 323.067 263.445 323.067 262.41V249.572ZM325.891 261.936H328.562C330.399 261.936 331.522 260.799 331.522 259.052C331.522 257.305 330.382 256.203 328.562 256.203H325.398V261.427C325.398 261.766 325.585 261.936 325.908 261.936H325.891Z" fill="white"/>
<path d="M26.7933 206.222H28.9878C29.1239 206.799 29.26 207.477 29.3961 208.274C29.5321 209.071 29.6342 209.919 29.7193 210.835C29.8043 211.751 29.8724 212.633 29.9064 213.532C29.9404 214.431 29.9574 215.228 29.9574 215.923C28.6986 216.703 27.1505 217.263 25.2792 217.568C23.408 217.89 21.4857 218.043 19.5293 218.043C16.5693 218.043 13.8815 217.67 11.4828 216.958C9.0842 216.228 7.02579 215.075 5.32463 213.498C3.62347 211.921 2.31358 209.902 1.39495 207.477C0.459313 205.035 0 202.118 0 198.709C0 195.3 0.510348 192.416 1.53104 189.991C2.55174 187.549 3.91267 185.548 5.63084 183.987C7.34901 182.427 9.32236 181.274 11.6019 180.544C13.8645 179.815 16.2461 179.459 18.7468 179.459C21.0944 179.459 23.2378 179.629 25.1431 179.968C27.0484 180.307 28.6135 180.765 29.8213 181.325C29.8213 181.901 29.7873 182.614 29.7363 183.512C29.6852 184.411 29.6002 185.327 29.4641 186.311C29.345 187.295 29.1919 188.244 29.0388 189.194C28.8857 190.144 28.7326 190.924 28.5795 191.568H26.334L23.391 183.512C23.0677 183.343 22.5574 183.19 21.8429 183.088C21.1284 182.987 20.3969 182.936 19.6484 182.936C18.1854 182.936 16.8075 183.224 15.5316 183.818C14.2387 184.411 13.0989 185.344 12.1123 186.616C11.1086 187.905 10.326 189.55 9.76466 191.551C9.18627 193.553 8.91408 195.978 8.91408 198.776C8.91408 203.864 9.93478 207.765 11.9592 210.513C13.9835 213.243 16.7564 214.617 20.2438 214.617C21.2475 214.617 22.0981 214.532 22.7785 214.38C23.476 214.227 23.9523 214.007 24.1905 213.718L26.8103 206.256L26.7933 206.222Z" fill="white"/>
<path d="M100.079 217.415H81.6897V215.397C82.4042 215.109 83.2208 214.82 84.1224 214.515C85.024 214.21 85.9426 213.989 86.8783 213.854V183.563H80.669L77.2497 192.688H75.0552C74.9191 191.975 74.766 191.076 74.6299 189.974C74.4938 188.871 74.3577 187.735 74.2557 186.565C74.1536 185.395 74.0685 184.224 73.9835 183.071C73.9154 181.918 73.8814 180.934 73.8814 180.12H107.905C107.905 180.968 107.871 181.969 107.803 183.105C107.734 184.241 107.649 185.395 107.53 186.565C107.428 187.735 107.292 188.872 107.156 189.957C107.02 191.042 106.867 191.958 106.731 192.704H104.536L101.117 183.58H94.9077V213.871C95.8264 214.057 96.762 214.261 97.6636 214.515C98.5652 214.769 99.3818 215.075 100.096 215.414V217.432L100.079 217.415Z" fill="white"/>
<path d="M151.42 198.742C151.42 195.978 151.812 193.4 152.594 191.043C153.377 188.685 154.533 186.633 156.064 184.903C157.595 183.173 159.484 181.833 161.729 180.883C163.975 179.917 166.561 179.442 169.487 179.442C172.413 179.442 174.998 179.917 177.244 180.883C179.489 181.85 181.378 183.19 182.892 184.903C184.406 186.633 185.563 188.668 186.345 191.043C187.128 193.4 187.519 195.978 187.519 198.742C187.519 201.507 187.128 204.085 186.345 206.442C185.563 208.8 184.406 210.852 182.892 212.582C181.378 214.312 179.489 215.652 177.244 216.601C174.998 217.568 172.413 218.043 169.487 218.043C166.561 218.043 163.975 217.568 161.729 216.601C159.484 215.635 157.595 214.295 156.064 212.582C154.533 210.869 153.377 208.817 152.594 206.442C151.812 204.085 151.42 201.507 151.42 198.742ZM160.521 198.742C160.521 201.015 160.709 203.118 161.049 205.069C161.406 207.002 161.967 208.681 162.733 210.089C163.499 211.496 164.485 212.599 165.676 213.396C166.867 214.193 168.313 214.6 169.98 214.6C171.511 214.6 172.821 214.193 173.893 213.396C174.964 212.599 175.832 211.496 176.512 210.089C177.193 208.681 177.686 207.019 177.975 205.069C178.282 203.135 178.435 201.032 178.435 198.742C178.435 196.453 178.265 194.367 177.924 192.416C177.584 190.483 177.057 188.804 176.325 187.396C175.594 185.988 174.624 184.886 173.433 184.089C172.242 183.292 170.779 182.885 169.078 182.885C167.377 182.885 166.067 183.292 164.962 184.089C163.856 184.886 162.971 185.988 162.308 187.396C161.644 188.804 161.185 190.466 160.913 192.416C160.641 194.35 160.504 196.47 160.504 198.742H160.521Z" fill="white"/>
<path d="M241.344 184.191C240.238 184.021 239.2 183.733 238.213 183.343C237.227 182.953 236.393 182.546 235.679 182.122V180.104H266.538V182.122C266.01 182.444 265.347 182.749 264.581 183.021C263.816 183.309 262.999 183.512 262.149 183.665V213.854C262.965 213.99 263.748 214.21 264.479 214.498C265.211 214.787 265.891 215.092 266.538 215.397V217.416H250.071V215.397C250.683 215.075 251.329 214.787 252.027 214.515C252.724 214.244 253.422 214.024 254.136 213.854V183.563H245.409C245.307 188.974 245.052 193.468 244.661 197.081C244.27 200.693 243.793 203.661 243.215 206.018C242.637 208.359 242.007 210.225 241.31 211.598C240.612 212.972 239.898 214.142 239.149 215.143C238.469 216.059 237.618 216.788 236.58 217.297C235.543 217.806 234.556 218.077 233.586 218.077C233.127 217.89 232.685 217.534 232.242 216.992C231.817 216.432 231.426 215.804 231.069 215.092C230.711 214.38 230.422 213.634 230.184 212.853C229.946 212.073 229.827 211.344 229.776 210.666L231.222 208.647L237.584 210.191C238.043 209.19 238.503 208.003 238.945 206.595C239.387 205.187 239.796 203.457 240.153 201.388C240.51 199.336 240.799 196.894 241.003 194.079C241.225 191.28 241.327 187.973 241.327 184.208L241.344 184.191Z" fill="white"/>
<path d="M314.766 183.665C313.082 183.377 311.619 182.868 310.377 182.122V180.104H339.092C339.092 180.918 339.058 181.833 338.99 182.817C338.922 183.818 338.837 184.801 338.718 185.802C338.616 186.803 338.48 187.753 338.344 188.685C338.208 189.618 338.055 190.449 337.918 191.195H335.724L332.407 183.563H322.778V195.724C323.101 195.69 323.493 195.639 323.952 195.588C324.411 195.537 324.888 195.486 325.364 195.452C325.84 195.418 326.334 195.385 326.81 195.368C327.286 195.351 327.712 195.334 328.069 195.334C329.889 195.334 331.624 195.537 333.257 195.927C334.89 196.317 336.336 196.945 337.561 197.827C338.786 198.709 339.773 199.828 340.504 201.219C341.236 202.609 341.593 204.272 341.593 206.239C341.593 208.206 341.202 209.784 340.436 211.191C339.671 212.616 338.616 213.803 337.289 214.736C335.945 215.686 334.363 216.381 332.526 216.873C330.689 217.348 328.698 217.585 326.555 217.585C326.368 217.585 325.925 217.585 325.211 217.568C324.496 217.551 323.697 217.534 322.812 217.517L320.141 217.466C319.257 217.45 318.542 217.433 317.998 217.433H310.343V215.414C311.023 215.024 311.721 214.702 312.452 214.431C313.184 214.159 313.949 213.973 314.732 213.871V183.682L314.766 183.665ZM325.789 198.81C325.211 198.81 324.666 198.844 324.122 198.895C323.595 198.946 323.135 199.031 322.778 199.133V213.905C322.914 213.939 323.152 213.973 323.442 214.007C323.748 214.041 324.054 214.074 324.377 214.091C324.7 214.108 325.007 214.125 325.313 214.125H326.027C328.137 214.125 329.787 213.447 330.978 212.107C332.169 210.767 332.764 208.851 332.764 206.409C332.764 203.966 332.203 202.219 331.114 200.863C330.008 199.506 328.222 198.844 325.772 198.844L325.789 198.81Z" fill="white"/>
<path d="M386.385 217.415V215.397C387.031 215.041 387.728 214.736 388.494 214.464C389.259 214.193 390.025 213.99 390.774 213.854V183.665C390.059 183.529 389.328 183.343 388.579 183.105C387.83 182.868 387.099 182.546 386.385 182.122V180.103H403.498V182.122C402.818 182.478 402.086 182.783 401.287 183.054C400.487 183.326 399.654 183.529 398.803 183.665V195.079C399.449 194.977 400.215 194.876 401.1 194.808C401.984 194.74 402.784 194.706 403.498 194.706C405.352 194.706 407.105 194.876 408.772 195.232C410.422 195.588 411.868 196.198 413.11 197.046C414.335 197.894 415.321 199.031 416.053 200.455C416.784 201.88 417.141 203.661 417.141 205.781C417.141 207.765 416.75 209.512 415.968 210.988C415.185 212.463 414.113 213.684 412.752 214.668C411.392 215.652 409.809 216.381 407.989 216.856C406.169 217.331 404.23 217.568 402.154 217.568C401.967 217.568 401.61 217.568 401.066 217.551C400.504 217.534 399.875 217.517 399.143 217.5C398.412 217.483 397.68 217.466 396.932 217.449C396.183 217.432 395.537 217.415 395.009 217.415H386.402H386.385ZM401.576 198.166C400.402 198.166 399.466 198.268 398.786 198.488V213.905C399.075 213.973 399.534 214.023 400.181 214.057C400.827 214.091 401.304 214.108 401.627 214.108C403.651 214.108 405.284 213.447 406.492 212.141C407.7 210.835 408.312 208.715 408.312 205.798C408.312 200.71 406.067 198.166 401.576 198.166ZM434 217.415H417.788V215.397C418.366 215.075 418.979 214.787 419.642 214.515C420.306 214.244 420.986 214.023 421.701 213.854V183.665C421.02 183.529 420.323 183.326 419.591 183.071C418.86 182.817 418.179 182.495 417.533 182.105V180.086H434V182.105C432.792 182.885 431.363 183.394 429.713 183.648V213.837C430.598 213.973 431.414 214.21 432.112 214.498C432.826 214.804 433.456 215.092 433.983 215.38V217.399L434 217.415Z" fill="white"/>
<path d="M217 11.8936C183.606 11.8936 156.456 38.9788 156.456 72.2544C156.456 105.53 183.606 132.615 217 132.615C250.394 132.615 277.544 105.53 277.544 72.2544C277.544 38.9788 250.377 11.8936 217 11.8936ZM217 136.482C181.48 136.482 152.56 107.667 152.56 72.2374C152.56 36.8079 181.463 8.00977 217 8.00977C252.537 8.00977 281.44 36.8249 281.44 72.2544C281.44 107.684 252.537 136.499 217 136.499V136.482Z" fill="white"/>
<path d="M217 4.04108C179.285 4.04108 148.596 34.637 148.596 72.2374C148.596 109.838 179.285 140.451 217 140.451C254.715 140.451 285.421 109.855 285.421 72.2374C285.421 34.62 254.732 4.04108 217 4.04108ZM217 144.351C177.142 144.351 144.701 112.009 144.701 72.2544C144.701 32.5 177.125 0.157227 217 0.157227C256.875 0.157227 289.316 32.5 289.316 72.2374C289.316 111.975 256.875 144.335 217 144.335V144.351Z" fill="white"/>
<path d="M251.006 77.4611C247.791 76.7827 245.631 77.7324 244.406 78.6483C241.242 80.9888 240.697 84.4995 240.765 88.112C240.816 90.8595 240.493 96.2019 237.72 100.052C234.352 104.767 231.443 108.82 219.365 109.736C218.837 109.77 218.31 109.804 217.783 109.821C205.534 109.753 199.733 101.951 197.062 95.5914C195.957 92.9286 195.378 90.0794 195.378 87.1113V81.4467C200.039 79.632 203.136 76.24 203.136 72.2544C203.136 68.2687 200.056 64.8937 195.378 63.079V57.4143C195.378 54.4293 195.94 51.5801 197.062 48.9343C199.75 42.5573 205.568 34.5861 217.902 34.5522C218.395 34.5691 218.888 34.5861 219.382 34.62C231.443 35.5359 234.369 39.5893 237.737 44.3042C240.493 48.1541 240.816 53.5135 240.782 56.261C240.714 59.8735 241.259 63.3843 244.423 65.7247C245.648 66.6406 247.825 67.5903 251.023 66.895C255.14 65.7247 256.909 62.7906 257.283 60.0262C257.624 57.6857 256.994 55.5657 255.718 53.1404C244.338 31.669 220.657 30.5157 218.361 30.5157H218.208C206.079 30.0069 195.344 34.8744 186.906 44.3381C181.956 49.901 178.826 56.4985 177.414 64.0287C173.927 65.9622 171.732 68.8963 171.732 72.2544C171.732 75.6124 173.927 78.5635 177.431 80.4969C178.843 87.9424 181.99 94.5059 186.889 100.018C195.327 109.482 206.062 114.349 218.191 113.857H218.344C220.64 113.857 244.321 112.704 255.701 91.2326C256.977 88.8074 257.59 86.6874 257.266 84.3299C256.875 81.5654 255.123 78.6483 251.006 77.4611ZM253.014 56.5494C253.949 58.7881 253.728 62.1801 250.173 63.0959C248.744 63.486 247.587 63.2486 246.719 62.6041C246.311 62.2988 245.971 61.9087 245.699 61.4678C244.304 59.2799 244.712 57.2956 244.644 54.9042C244.542 51.4613 243.844 46.1868 240.884 42.0316C240.51 41.5228 240.153 41.014 239.762 40.4882C245.052 43.8463 249.968 48.5442 253.014 56.5324V56.5494ZM187.417 65.5043C193.813 65.5043 199.223 68.591 199.223 72.2374C199.223 75.8838 193.813 78.9875 187.417 78.9875C181.02 78.9875 175.611 75.9008 175.611 72.2374C175.611 68.574 181.02 65.5043 187.417 65.5043ZM189.798 46.916C192.316 44.1007 195.055 41.7432 197.981 39.8776C195.838 42.5064 194.392 45.237 193.473 47.4079C192.146 50.5455 191.466 53.9036 191.466 57.3974V61.9935C190.173 61.773 188.829 61.6374 187.417 61.6374C185.392 61.6374 183.487 61.8918 181.718 62.3497C183.181 56.5154 185.852 51.3257 189.798 46.916ZM189.798 97.44C185.903 93.0643 183.232 87.9424 181.769 82.176C183.521 82.6169 185.426 82.8713 187.434 82.8713C188.846 82.8713 190.19 82.7357 191.483 82.5152V87.1113C191.483 90.6051 192.163 93.9632 193.49 97.1008C194.392 99.2378 195.804 101.884 197.896 104.411C195.004 102.545 192.299 100.221 189.815 97.44H189.798ZM253.014 87.8067C249.968 95.8118 245.052 100.51 239.762 103.868C240.153 103.359 240.51 102.833 240.884 102.325C243.844 98.1863 244.542 92.8947 244.644 89.4688C244.712 87.0774 244.287 85.0761 245.699 82.8883C245.971 82.4643 246.328 82.0742 246.719 81.7689C247.604 81.1245 248.744 80.887 250.173 81.2601C253.711 82.1929 253.949 85.5849 253.014 87.8067Z" fill="white"/>
</g>
<defs>
<clipPath id="clip0_373_9564">
<rect width="434" height="264" fill="white" transform="translate(0 0.157227)"/>
</clipPath>
</defs>
</svg>
