<svg width="161" height="34" viewBox="0 0 161 34" fill="none" xmlns="http://www.w3.org/2000/svg">
    <path
        d="M17 3.28967C9.43558 3.28967 3.28543 9.44368 3.28543 17.0042C3.28543 24.5647 9.43558 30.7188 17 30.7188C24.5643 30.7188 30.7145 24.5647 30.7145 17.0042C30.7145 9.44368 24.5605 3.28967 17 3.28967ZM17 31.5973C8.9539 31.5973 2.40298 25.0503 2.40298 17.0004C2.40298 8.95044 8.95004 2.40723 17 2.40723C25.0499 2.40723 31.597 8.95429 31.597 17.0042C31.597 25.0541 25.0499 31.6012 17 31.6012V31.5973Z"
        fill="white" />
    <path
        d="M17 1.316C8.132 1.316 1.316 8.132 1.316 17C1.316 25.868 8.132 32.688 17 32.688C25.868 32.688 32.688 25.872 32.688 17C32.688 8.128 25.872 1.316 17 1.316ZM17 34.008C7.628 34.008 0 26.38 0 17.004C0 7.628 7.624 0 17 0C26.376 0 34.004 7.628 34.004 17C34.004 26.372 26.376 34.004 17 34.004V34.008Z"
        fill="white" />
    <path
        d="M24.9959 18.2319C24.2399 18.0719 23.7319 18.2959 23.4439 18.5119C22.6999 19.0639 22.5719 19.8919 22.5879 20.7439C22.5999 21.3919 22.5239 22.6519 21.8719 23.5599C21.0799 24.6719 20.3959 25.6279 17.5559 25.8439C17.4319 25.8519 17.3079 25.8599 17.1839 25.8639C14.3039 25.8479 12.9399 24.0079 12.3119 22.5079C12.0519 21.8799 11.9159 21.2079 11.9159 20.5079V19.1719C13.0119 18.7439 13.7399 17.9439 13.7399 17.0039C13.7399 16.0639 13.0159 15.2679 11.9159 14.8399V13.5039C11.9159 12.7999 12.0479 12.1279 12.3119 11.5039C12.9439 9.9999 14.3119 8.1199 17.2119 8.1119C17.3279 8.1159 17.4439 8.1199 17.5599 8.1279C20.3959 8.3439 21.0839 9.2999 21.8759 10.4119C22.5239 11.3199 22.5999 12.5839 22.5919 13.2319C22.5759 14.0839 22.7039 14.9119 23.4479 15.4639C23.7359 15.6799 24.2479 15.9039 24.9999 15.7399C25.9679 15.4639 26.3839 14.7719 26.4719 14.1199C26.5519 13.5679 26.4039 13.0679 26.1039 12.4959C23.4279 7.4319 17.8599 7.1599 17.3199 7.1599H17.2839C14.4319 7.0399 11.9079 8.1879 9.92391 10.4199C8.75991 11.7319 8.02391 13.2879 7.69191 15.0639C6.87191 15.5199 6.35591 16.2119 6.35591 17.0039C6.35591 17.7959 6.87191 18.4919 7.69591 18.9479C8.02791 20.7039 8.76791 22.2519 9.91991 23.5519C11.9039 25.7839 14.4279 26.9319 17.2799 26.8159H17.3159C17.8559 26.8159 23.4239 26.5439 26.0999 21.4799C26.3999 20.9079 26.5439 20.4079 26.4679 19.8519C26.3759 19.1999 25.9639 18.5119 24.9959 18.2319ZM25.4679 13.2999C25.6879 13.8279 25.6359 14.6279 24.7999 14.8439C24.4639 14.9359 24.1919 14.8799 23.9879 14.7279C23.8919 14.6559 23.8119 14.5639 23.7479 14.4599C23.4199 13.9439 23.5159 13.4759 23.4999 12.9119C23.4759 12.0999 23.3119 10.8559 22.6159 9.8759C22.5279 9.7559 22.4439 9.6359 22.3519 9.5119C23.5959 10.3039 24.7519 11.4119 25.4679 13.2959V13.2999ZM10.0439 15.4119C11.5479 15.4119 12.8199 16.1399 12.8199 16.9999C12.8199 17.8599 11.5479 18.5919 10.0439 18.5919C8.53991 18.5919 7.26791 17.8639 7.26791 16.9999C7.26791 16.1359 8.53991 15.4119 10.0439 15.4119ZM10.6039 11.0279C11.1959 10.3639 11.8399 9.8079 12.5279 9.3679C12.0239 9.9879 11.6839 10.6319 11.4679 11.1439C11.1559 11.8839 10.9959 12.6759 10.9959 13.4999V14.5839C10.6919 14.5319 10.3759 14.4999 10.0439 14.4999C9.56791 14.4999 9.11991 14.5599 8.70391 14.6679C9.04791 13.2919 9.67591 12.0679 10.6039 11.0279ZM10.6039 22.9439C9.68791 21.9119 9.05991 20.7039 8.71591 19.3439C9.12791 19.4479 9.57591 19.5079 10.0479 19.5079C10.3799 19.5079 10.6959 19.4759 10.9999 19.4239V20.5079C10.9999 21.3319 11.1599 22.1239 11.4719 22.8639C11.6839 23.3679 12.0159 23.9919 12.5079 24.5879C11.8279 24.1479 11.1919 23.5999 10.6079 22.9439H10.6039ZM25.4679 20.6719C24.7519 22.5599 23.5959 23.6679 22.3519 24.4599C22.4439 24.3399 22.5279 24.2159 22.6159 24.0959C23.3119 23.1199 23.4759 21.8719 23.4999 21.0639C23.5159 20.4999 23.4159 20.0279 23.7479 19.5119C23.8119 19.4119 23.8959 19.3199 23.9879 19.2479C24.1959 19.0959 24.4639 19.0399 24.7999 19.1279C25.6319 19.3479 25.6879 20.1479 25.4679 20.6719Z"
        fill="white" />
    <path
        d="M52.7323 18.9819H53.3126C53.3486 19.1348 53.3846 19.3148 53.4206 19.5262C53.4566 19.7377 53.4836 19.9626 53.5061 20.2056C53.5286 20.4485 53.5466 20.6824 53.5556 20.9209C53.5646 21.1593 53.5691 21.3707 53.5691 21.5552C53.2362 21.7621 52.8268 21.9106 52.3319 21.9916C51.837 22.077 51.3287 22.1175 50.8113 22.1175C50.0285 22.1175 49.3177 22.0186 48.6834 21.8296C48.0491 21.6362 47.5047 21.3302 47.0548 20.9119C46.605 20.4935 46.2586 19.9581 46.0156 19.3148C45.7682 18.667 45.6467 17.8932 45.6467 16.9889C45.6467 16.0847 45.7817 15.3199 46.0516 14.6766C46.3215 14.0287 46.6814 13.4979 47.1358 13.084C47.5902 12.6701 48.1121 12.3642 48.7149 12.1707C49.3132 11.9773 49.9431 11.8828 50.6044 11.8828C51.2252 11.8828 51.7921 11.9278 52.2959 12.0178C52.7998 12.1077 53.2137 12.2292 53.5331 12.3777C53.5331 12.5306 53.5241 12.7196 53.5106 12.958C53.4971 13.1965 53.4746 13.4394 53.4386 13.7003C53.4071 13.9612 53.3666 14.2132 53.3261 14.4651C53.2857 14.717 53.2452 14.924 53.2047 15.0949H52.6108L51.8325 12.958C51.7471 12.913 51.6121 12.8725 51.4232 12.8456C51.2342 12.8186 51.0408 12.8051 50.8428 12.8051C50.4559 12.8051 50.0915 12.8815 49.7541 13.039C49.4122 13.1965 49.1108 13.4439 48.8499 13.7813C48.5844 14.1232 48.3775 14.5596 48.229 15.0904C48.0761 15.6213 48.0041 16.2646 48.0041 17.0069C48.0041 18.3566 48.274 19.3913 48.8094 20.1201C49.3447 20.8444 50.078 21.2088 51.0003 21.2088C51.2657 21.2088 51.4906 21.1863 51.6706 21.1458C51.855 21.1053 51.981 21.0468 52.044 20.9703L52.7368 18.9909L52.7323 18.9819Z"
        fill="white" />
    <path
        d="M72.113 21.9514H67.2499V21.4161C67.4388 21.3396 67.6547 21.2631 67.8932 21.1821C68.1316 21.1011 68.3745 21.0427 68.622 21.0067V12.9718H66.9799L66.0757 15.3922H65.4953C65.4593 15.2032 65.4188 14.9648 65.3829 14.6724C65.3469 14.38 65.3109 14.0785 65.2839 13.7681C65.2569 13.4577 65.2344 13.1473 65.2119 12.8414C65.1939 12.5355 65.1849 12.2745 65.1849 12.0586H74.1825C74.1825 12.2835 74.1735 12.549 74.1555 12.8504C74.1375 13.1518 74.115 13.4577 74.0835 13.7681C74.0565 14.0785 74.0205 14.38 73.9845 14.6679C73.9485 14.9558 73.908 15.1987 73.8721 15.3967H73.2917L72.3875 12.9763H70.7454V21.0112C70.9883 21.0607 71.2358 21.1146 71.4742 21.1821C71.7126 21.2496 71.9286 21.3306 72.1175 21.4206V21.9559L72.113 21.9514Z"
        fill="white" />
    <path
        d="M85.6904 16.998C85.6904 16.2647 85.7939 15.5809 86.0008 14.9556C86.2077 14.3303 86.5137 13.7859 86.9185 13.327C87.3234 12.8681 87.8228 12.5127 88.4166 12.2608C89.0105 12.0044 89.6943 11.8784 90.4681 11.8784C91.2419 11.8784 91.9257 12.0044 92.5195 12.2608C93.1134 12.5172 93.6127 12.8726 94.0131 13.327C94.4135 13.7859 94.7194 14.3258 94.9264 14.9556C95.1333 15.5809 95.2368 16.2647 95.2368 16.998C95.2368 17.7313 95.1333 18.4151 94.9264 19.0405C94.7194 19.6658 94.4135 20.2102 94.0131 20.669C93.6127 21.1279 93.1134 21.4833 92.5195 21.7352C91.9257 21.9917 91.2419 22.1176 90.4681 22.1176C89.6943 22.1176 89.0105 21.9917 88.4166 21.7352C87.8228 21.4788 87.3234 21.1234 86.9185 20.669C86.5137 20.2147 86.2077 19.6703 86.0008 19.0405C85.7939 18.4151 85.6904 17.7313 85.6904 16.998ZM88.0972 16.998C88.0972 17.6009 88.1467 18.1587 88.2367 18.6761C88.3312 19.1889 88.4796 19.6343 88.6821 20.0077C88.8845 20.3811 89.1454 20.6735 89.4604 20.885C89.7753 21.0964 90.1577 21.2044 90.5985 21.2044C91.0034 21.2044 91.3498 21.0964 91.6333 20.885C91.9167 20.6735 92.1461 20.3811 92.3261 20.0077C92.506 19.6343 92.6365 19.1934 92.713 18.6761C92.794 18.1632 92.8344 17.6054 92.8344 16.998C92.8344 16.3907 92.7895 15.8373 92.6995 15.32C92.6095 14.8071 92.47 14.3617 92.2766 13.9883C92.0831 13.6149 91.8267 13.3225 91.5118 13.1111C91.1969 12.8996 90.81 12.7917 90.3601 12.7917C89.9102 12.7917 89.5638 12.8996 89.2714 13.1111C88.979 13.3225 88.7451 13.6149 88.5696 13.9883C88.3942 14.3617 88.2727 14.8026 88.2007 15.32C88.1287 15.8328 88.0927 16.3952 88.0927 16.998H88.0972Z"
        fill="white" />
    <path
        d="M109.471 13.1379C109.179 13.0929 108.904 13.0165 108.643 12.913C108.382 12.8095 108.162 12.7015 107.973 12.5891V12.0537H116.134V12.5891C115.994 12.6745 115.819 12.7555 115.616 12.8275C115.414 12.904 115.198 12.958 114.973 12.9985V21.0063C115.189 21.0423 115.396 21.1008 115.589 21.1772C115.783 21.2537 115.963 21.3347 116.134 21.4157V21.951H111.779V21.4157C111.941 21.3302 112.112 21.2537 112.296 21.1817C112.481 21.1098 112.665 21.0513 112.854 21.0063V12.9715H110.546C110.519 14.4066 110.452 15.5988 110.348 16.557C110.245 17.5152 110.119 18.3025 109.966 18.9278C109.813 19.5487 109.646 20.0435 109.462 20.4079C109.277 20.7723 109.089 21.0828 108.891 21.3482C108.711 21.5911 108.486 21.7846 108.211 21.9195C107.937 22.0545 107.676 22.1265 107.419 22.1265C107.298 22.077 107.181 21.9825 107.064 21.8386C106.952 21.6901 106.848 21.5236 106.754 21.3347C106.659 21.1457 106.583 20.9478 106.52 20.7409C106.457 20.5339 106.425 20.3405 106.412 20.1605L106.794 19.6252L108.477 20.0345C108.598 19.7691 108.72 19.4542 108.837 19.0808C108.954 18.7074 109.062 18.2485 109.156 17.6997C109.25 17.1553 109.327 16.5075 109.381 15.7607C109.439 15.0184 109.466 14.1411 109.466 13.1424L109.471 13.1379Z"
        fill="white" />
    <path
        d="M128.888 12.9985C128.442 12.922 128.055 12.787 127.727 12.5891V12.0537H135.321C135.321 12.2697 135.312 12.5126 135.294 12.7735C135.276 13.0389 135.253 13.2999 135.222 13.5653C135.195 13.8307 135.159 14.0827 135.123 14.3301C135.087 14.5775 135.046 14.798 135.01 14.9959H134.43L133.553 12.9715H131.007V16.1971C131.092 16.1881 131.195 16.1746 131.317 16.1611C131.438 16.1476 131.564 16.1341 131.69 16.1251C131.816 16.1161 131.947 16.1071 132.073 16.1026C132.199 16.0981 132.311 16.0936 132.406 16.0936C132.887 16.0936 133.346 16.1476 133.778 16.2511C134.21 16.3545 134.592 16.521 134.916 16.7549C135.24 16.9889 135.501 17.2858 135.694 17.6547C135.888 18.0236 135.982 18.4645 135.982 18.9863C135.982 19.5082 135.879 19.9266 135.676 20.3C135.474 20.6779 135.195 20.9928 134.844 21.2402C134.489 21.4921 134.07 21.6766 133.584 21.8071C133.098 21.933 132.572 21.996 132.005 21.996C131.956 21.996 131.839 21.996 131.65 21.9915C131.461 21.987 131.249 21.9825 131.016 21.978L130.309 21.9645C130.075 21.96 129.886 21.9555 129.742 21.9555H127.718V21.4202C127.898 21.3167 128.082 21.2312 128.276 21.1592C128.469 21.0873 128.672 21.0378 128.879 21.0108V13.003L128.888 12.9985ZM131.803 17.0159C131.65 17.0159 131.506 17.0249 131.362 17.0384C131.222 17.0519 131.101 17.0743 131.007 17.1013V21.0198C131.043 21.0288 131.106 21.0378 131.182 21.0468C131.263 21.0558 131.344 21.0648 131.429 21.0693C131.515 21.0738 131.596 21.0783 131.677 21.0783H131.866C132.424 21.0783 132.86 20.8983 133.175 20.5429C133.49 20.1875 133.647 19.6791 133.647 19.0313C133.647 18.3835 133.499 17.9201 133.211 17.5602C132.919 17.2003 132.446 17.0249 131.798 17.0249L131.803 17.0159Z"
        fill="white" />
    <path
        d="M147.828 21.9511V21.4158C147.999 21.3213 148.183 21.2403 148.385 21.1683C148.588 21.0964 148.79 21.0424 148.988 21.0064V12.9986C148.799 12.9626 148.606 12.9131 148.408 12.8501C148.21 12.7871 148.017 12.7016 147.828 12.5892V12.0538H152.353V12.5892C152.173 12.6836 151.98 12.7646 151.769 12.8366C151.557 12.9086 151.337 12.9626 151.112 12.9986V16.0262C151.283 15.9992 151.485 15.9723 151.719 15.9543C151.953 15.9363 152.164 15.9273 152.353 15.9273C152.844 15.9273 153.307 15.9723 153.748 16.0667C154.184 16.1612 154.567 16.3232 154.895 16.5481C155.219 16.773 155.48 17.0745 155.673 17.4524C155.867 17.8302 155.961 18.3026 155.961 18.865C155.961 19.3913 155.858 19.8547 155.651 20.2461C155.444 20.6375 155.161 20.9614 154.801 21.2223C154.441 21.4833 154.022 21.6767 153.541 21.8027C153.06 21.9286 152.547 21.9916 151.998 21.9916C151.948 21.9916 151.854 21.9916 151.71 21.9871C151.562 21.9826 151.395 21.9781 151.202 21.9736C151.008 21.9691 150.815 21.9646 150.617 21.9601C150.419 21.9556 150.248 21.9511 150.108 21.9511H147.832H147.828ZM151.845 16.845C151.535 16.845 151.287 16.872 151.107 16.9305V21.0199C151.184 21.0379 151.305 21.0514 151.476 21.0604C151.647 21.0694 151.773 21.0739 151.858 21.0739C152.394 21.0739 152.826 20.8984 153.145 20.552C153.465 20.2056 153.627 19.6433 153.627 18.8695C153.627 17.5198 153.033 16.845 151.845 16.845ZM160.42 21.9511H156.132V21.4158C156.285 21.3303 156.447 21.2538 156.623 21.1818C156.798 21.1099 156.978 21.0514 157.167 21.0064V12.9986C156.987 12.9626 156.803 12.9086 156.609 12.8411C156.416 12.7736 156.236 12.6881 156.065 12.5847V12.0493H160.42V12.5847C160.1 12.7916 159.722 12.9266 159.286 12.9941V21.0019C159.52 21.0379 159.736 21.1009 159.92 21.1773C160.109 21.2583 160.276 21.3348 160.415 21.4113V21.9466L160.42 21.9511Z"
        fill="white" />
</svg>