<svg width="92" height="92" viewBox="0 0 92 92" fill="none" xmlns="http://www.w3.org/2000/svg">
<path d="M47.6332 69.3052L66.3398 81.0174C68.7523 82.5181 71.7216 80.2854 71.0164 77.5404L65.5974 56.5316C65.4509 55.9493 65.4742 55.338 65.6646 54.7681C65.8551 54.1983 66.2049 53.6931 66.6738 53.3108L83.4503 39.5123C85.6401 37.7189 84.5267 34.0954 81.6687 33.9124L59.7702 32.5216C59.1727 32.4873 58.5983 32.2822 58.1171 31.9312C57.6359 31.5802 57.2688 31.0986 57.0607 30.5452L48.8952 10.2684C48.679 9.68248 48.2853 9.17629 47.7673 8.8186C47.2494 8.46091 46.6324 8.26904 46.0001 8.26904C45.3678 8.26904 44.7508 8.46091 44.2329 8.8186C43.715 9.17629 43.3212 9.68248 43.1051 10.2684L34.9395 30.5452C34.7314 31.0986 34.3643 31.5802 33.8832 31.9312C33.402 32.2822 32.8276 32.4873 32.23 32.5216L10.3315 33.9124C7.4736 34.0954 6.36012 37.7189 8.54997 39.5123L25.3265 53.3108C25.7954 53.6931 26.1452 54.1983 26.3356 54.7681C26.526 55.338 26.5493 55.9493 26.4028 56.5316L21.3921 76.0031C20.5385 79.2972 24.1016 81.969 26.9596 80.1756L44.367 69.3052C44.8552 68.9991 45.4217 68.8366 46.0001 68.8366C46.5786 68.8366 47.1451 68.9991 47.6332 69.3052Z" fill="#A2A594"/>
</svg>
