<svg width="68" height="92" viewBox="0 0 68 92" fill="none" xmlns="http://www.w3.org/2000/svg">
<path d="M67.7763 22.6879C64.3574 38.8119 60.9382 54.9362 57.5191 71.0603C56.7454 74.4742 54.7274 75.3239 51.8596 73.7157C46.6502 69.8765 41.4408 66.0379 36.2311 62.1989C33.7175 64.6163 31.2037 67.0344 28.6902 69.4518C27.8556 70.2863 27.1577 70.9842 25.5495 70.9842C25.9235 65.6787 26.2978 60.3732 26.6718 55.0676C36.3272 46.3429 45.9826 37.6182 55.6376 28.8938C56.8972 27.7709 55.3647 27.149 53.6805 28.2716C41.7443 35.7874 29.8078 43.3033 17.8717 50.8191C12.733 49.2109 7.59441 47.6021 2.45546 45.9939C-0.897556 44.947 -0.958447 42.6406 3.15339 41.0324C23.2533 33.2887 43.3525 25.5454 63.4521 17.8021C66.2438 16.7552 68.6868 18.4243 67.7763 22.6879Z" fill="#A2A594"/>
</svg>
